<svg width="70" height="60" viewBox="0 0 70 60" fill="none" xmlns="http://www.w3.org/2000/svg">
<g clip-path="url(#clip0)">
<path fill-rule="evenodd" clip-rule="evenodd" d="M7.56168 2.49025C5.27278 7.32604 4.75188 16.8909 6.50444 21.8992C6.88451 22.9854 7.2883 24.2882 7.40182 24.7945C7.67682 26.0227 11.2493 34.34 12.6821 37.0888C14.0884 39.786 14.0623 39.8128 11.3651 38.4409C7.48552 36.4677 4.43395 32.4113 3.10261 27.4581C2.15906 23.9476 1.00213 23.8828 1.07739 27.3447C1.20869 33.383 6.30991 39.8373 13.9186 43.5926C16.9368 45.082 16.0635 43.8984 22.8057 55.6401C25.6785 60.6436 25.8172 60.8039 27.2711 60.8039C29.0764 60.8039 29.334 60.4071 30.3483 56.0643C31.3766 51.6612 32.532 47.8407 33.7699 44.7487L34.6587 42.5287L33.6923 41.2022C33.1608 40.4727 32.6092 39.8746 32.4668 39.8731C31.99 39.8682 29.8265 44.7621 28.4693 48.9149L27.127 53.0223L25.5318 50.6923C24.0533 48.5325 19.424 39.975 18.2811 37.2885C14.1843 27.6594 15.8591 16.0126 21.8368 12.56C23.945 11.3423 23.5578 9.84566 21.3386 10.6341C16.799 12.2471 12.6854 19.1303 12.246 25.849C12.1465 27.369 11.0011 24.6872 9.84933 20.2382C8.6676 15.6733 8.5654 6.83521 9.65606 3.54208C10.6348 0.587361 8.87974 -0.294086 7.56168 2.49025ZM62.2674 1.32344C62.1449 1.62139 62.2367 2.90689 62.4711 4.18029C63.7157 10.9401 63.3733 17.0517 61.4453 22.4918C60.103 26.2792 59.5785 27.0853 59.5699 25.3746C59.5416 19.8635 55.7204 13.175 51.3669 11.0167C48.1327 9.41324 47.83 10.5231 50.797 13.1077C59.0466 20.2944 57.2989 34.8001 46.2661 50.7128L44.6362 53.0634L44.0695 51.1078C42.5499 45.8636 42.0272 44.5157 40.0523 40.7478L37.9245 36.6882L39.6352 34.616C40.5761 33.4764 42.5 31.8459 43.9105 30.9928C45.3211 30.1397 46.4089 29.2554 46.3277 29.0278C45.8176 27.5955 41.9902 29.1527 38.4126 32.2483L35.9273 34.3986L33.7245 32.4245C31.361 30.3066 27.5389 28.2644 26.3435 28.4811C25.0689 28.7121 25.2257 29.5311 26.6763 30.2197C33.4042 33.4132 38.1965 41.9034 41.5987 56.6567C42.4578 60.3817 42.754 60.8039 44.5098 60.8039C45.9543 60.8039 46.1163 60.63 48.377 56.6567C49.7705 54.2074 53.3976 48.096 54.7233 45.9637C55.2286 45.1507 56.5364 44.2446 58.6829 43.2203C64.9753 40.2172 69.9084 34.1658 70.9034 28.2298C71.6057 24.0384 69.9848 23.4111 68.8429 27.4325C67.4158 32.4586 63.9364 36.9738 60.0392 38.8572C58.1108 39.7892 58.0871 39.6084 59.7028 36.2776C67.0201 21.1932 68.469 10.6645 64.3542 2.47749C63.6499 1.07618 62.606 0.498897 62.2674 1.32344Z" fill="white"/>
</g>
<defs>
<clipPath id="clip0">
<rect width="70" height="60" fill="white"/>
</clipPath>
</defs>
</svg>
